<svg width="24" height="27" viewBox="0 0 24 27" fill="none" xmlns="http://www.w3.org/2000/svg">
<path d="M1 15C1 17.4477 1.13246 19.3463 1.46153 20.827C1.78807 22.2963 2.29478 23.2921 3.00136 23.9986C3.70794 24.7052 4.70365 25.2119 6.17298 25.5385C7.65366 25.8675 9.55232 26 12 26C14.4477 26 16.3463 25.8675 17.827 25.5385C19.2963 25.2119 20.2921 24.7052 20.9986 23.9986C21.7052 23.2921 22.2119 22.2963 22.5385 20.827C22.8675 19.3463 23 17.4477 23 15C23 12.5523 22.8675 10.6537 22.5385 9.17298C22.2119 7.70365 21.7052 6.70794 20.9986 6.00136C20.2921 5.29478 19.2963 4.78807 17.827 4.46153C16.3463 4.13246 14.4477 4 12 4C9.55232 4 7.65366 4.13246 6.17298 4.46153C4.70365 4.78807 3.70794 5.29478 3.00136 6.00136C2.29478 6.70794 1.78807 7.70365 1.46153 9.17298C1.13246 10.6537 1 12.5523 1 15Z" stroke="#212135" stroke-width="2" stroke-linecap="round" stroke-linejoin="round"/>
<path fill-rule="evenodd" clip-rule="evenodd" d="M10 0C10.5523 0 11 0.447715 11 1V2H13V1C13 0.447715 13.4477 0 14 0C14.5523 0 15 0.447715 15 1V2H16C17.1046 2 18 2.89543 18 4C18 5.10457 17.1046 6 16 6H8C6.89543 6 6 5.10457 6 4C6 2.89543 6.89543 2 8 2H9V1C9 0.447715 9.44772 0 10 0Z" fill="#212135"/>
<path d="M11.8977 18.9091V9.81818H12.4801V18.9091H11.8977ZM13.858 12.5455C13.8153 12.1856 13.6425 11.9062 13.3395 11.7074C13.0365 11.5085 12.6648 11.4091 12.2244 11.4091C11.9025 11.4091 11.6207 11.4612 11.3793 11.5653C11.1402 11.6695 10.9531 11.8127 10.8182 11.995C10.6856 12.1773 10.6193 12.3845 10.6193 12.6165C10.6193 12.8106 10.6655 12.9775 10.7578 13.1172C10.8525 13.2545 10.9732 13.3693 11.12 13.4616C11.2668 13.5516 11.4207 13.6262 11.5817 13.6854C11.7427 13.7422 11.8906 13.7884 12.0256 13.8239L12.7642 14.0227C12.9536 14.0724 13.1643 14.1411 13.3963 14.2287C13.6307 14.3163 13.8544 14.4358 14.0675 14.5874C14.2829 14.7365 14.4605 14.9283 14.6001 15.1626C14.7398 15.397 14.8097 15.6847 14.8097 16.0256C14.8097 16.4186 14.7067 16.7737 14.5007 17.0909C14.2971 17.4081 13.9988 17.6603 13.6058 17.8473C13.2152 18.0343 12.7405 18.1278 12.1818 18.1278C11.661 18.1278 11.21 18.0438 10.8288 17.8757C10.45 17.7076 10.1518 17.4732 9.93395 17.1726C9.71851 16.8719 9.59659 16.5227 9.56818 16.125H10.4773C10.5009 16.3996 10.5933 16.6269 10.7543 16.8068C10.9176 16.9844 11.1236 17.117 11.3722 17.2045C11.6231 17.2898 11.893 17.3324 12.1818 17.3324C12.518 17.3324 12.8198 17.2779 13.0874 17.169C13.3549 17.0578 13.5668 16.9039 13.723 16.7074C13.8793 16.5085 13.9574 16.2765 13.9574 16.0114C13.9574 15.7699 13.8899 15.5734 13.755 15.4219C13.62 15.2704 13.4425 15.1473 13.2223 15.0526C13.0021 14.9579 12.7642 14.875 12.5085 14.804L11.6136 14.5483C11.0455 14.3849 10.5956 14.1518 10.2642 13.8487C9.93277 13.5457 9.76705 13.1491 9.76705 12.6591C9.76705 12.2519 9.87713 11.8968 10.0973 11.5938C10.3198 11.2884 10.6181 11.0516 10.9922 10.8835C11.3686 10.7131 11.7888 10.6278 12.2528 10.6278C12.7216 10.6278 13.1383 10.7119 13.5028 10.88C13.8674 11.0457 14.1563 11.273 14.3693 11.5618C14.5848 11.8506 14.6984 12.1785 14.7102 12.5455H13.858Z" fill="black"/>
</svg>
